<!DOCTYPE svg PUBLIC "-//W3C//DTD SVG 1.1//EN" "http://www.w3.org/Graphics/SVG/1.1/DTD/svg11.dtd">
<!-- Uploaded to: SVG Repo, www.svgrepo.com, Transformed by: SVG Repo Mixer Tools -->
<svg width="800px" height="800px" viewBox="0 0 24 24" id="Layer_1" data-name="Layer 1" xmlns="http://www.w3.org/2000/svg" fill="#091638" transform="matrix(-1, 0, 0, 1, 0, 0)" stroke="#091638">
<g id="SVGRepo_bgCarrier" stroke-width="0"/>
<g id="SVGRepo_tracerCarrier" stroke-linecap="round" stroke-linejoin="round"/>
<g id="SVGRepo_iconCarrier">
<defs>
<style>.cls-1{fill:none;stroke:#091638;stroke-miterlimit:10;stroke-width:0.984;}</style>
</defs>
<rect class="cls-1" x="1.5" y="13.91" width="21" height="3.82"/>
<path class="cls-1" d="M1.5,10.09H19.64A2.86,2.86,0,0,1,22.5,13v1a0,0,0,0,1,0,0H1.5a0,0,0,0,1,0,0V10.09A0,0,0,0,1,1.5,10.09Z"/>
<rect class="cls-1" x="1.5" y="6.27" width="6.68" height="3.82" rx="1.91"/>
<line class="cls-1" x1="10.09" y1="10.09" x2="10.09" y2="13.91"/>
<line class="cls-1" x1="1.5" y1="2.45" x2="1.5" y2="10.09"/>
<line class="cls-1" x1="1.5" y1="21.55" x2="1.5" y2="17.73"/>
<line class="cls-1" x1="22.5" y1="21.55" x2="22.5" y2="17.73"/>
</g>
</svg>